<mxfile host="65bd71144e">
    <diagram name="02" id="YMj1xpAl_SfOTKT0soET">
        <mxGraphModel dx="1178" dy="971" grid="1" gridSize="10" guides="1" tooltips="1" connect="1" arrows="1" fold="1" page="1" pageScale="1" pageWidth="1169" pageHeight="827" math="0" shadow="0">
            <root>
                <mxCell id="ML3krrQk0YiTmpszw3Px-0"/>
                <mxCell id="ML3krrQk0YiTmpszw3Px-1" parent="ML3krrQk0YiTmpszw3Px-0"/>
                <mxCell id="ML3krrQk0YiTmpszw3Px-4" value="地図&lt;div&gt;～関心～&lt;/div&gt;" style="text;html=1;align=center;verticalAlign=middle;whiteSpace=wrap;rounded=0;fillColor=#dae8fc;strokeColor=#6c8ebf;" parent="ML3krrQk0YiTmpszw3Px-1" vertex="1">
                    <mxGeometry x="81.25999999999999" y="110" width="200" height="40" as="geometry"/>
                </mxCell>
                <mxCell id="0" value="" style="triangle;whiteSpace=wrap;html=1;rotation=-90;" parent="ML3krrQk0YiTmpszw3Px-1" vertex="1">
                    <mxGeometry x="81.26" y="230" width="277.49" height="280" as="geometry"/>
                </mxCell>
                <mxCell id="2" value="先行研究１" style="text;html=1;align=center;verticalAlign=middle;whiteSpace=wrap;rounded=0;" parent="ML3krrQk0YiTmpszw3Px-1" vertex="1">
                    <mxGeometry x="165" y="200" width="110" height="30" as="geometry"/>
                </mxCell>
                <mxCell id="7" value="参考文献&lt;div&gt;A&lt;/div&gt;" style="text;html=1;align=center;verticalAlign=middle;whiteSpace=wrap;rounded=0;" parent="ML3krrQk0YiTmpszw3Px-1" vertex="1">
                    <mxGeometry x="131.26" y="310" width="110" height="30" as="geometry"/>
                </mxCell>
                <mxCell id="15" value="参考文献&lt;div&gt;B&lt;/div&gt;" style="text;html=1;align=center;verticalAlign=middle;whiteSpace=wrap;rounded=0;" vertex="1" parent="ML3krrQk0YiTmpszw3Px-1">
                    <mxGeometry x="201.26" y="310" width="110" height="30" as="geometry"/>
                </mxCell>
                <mxCell id="16" value="参考文献&lt;div&gt;C&lt;/div&gt;" style="text;html=1;align=center;verticalAlign=middle;whiteSpace=wrap;rounded=0;" vertex="1" parent="ML3krrQk0YiTmpszw3Px-1">
                    <mxGeometry x="96.26" y="410" width="110" height="30" as="geometry"/>
                </mxCell>
                <mxCell id="17" value="参考文献&lt;div&gt;D&lt;/div&gt;" style="text;html=1;align=center;verticalAlign=middle;whiteSpace=wrap;rounded=0;" vertex="1" parent="ML3krrQk0YiTmpszw3Px-1">
                    <mxGeometry x="166.26" y="410" width="110" height="30" as="geometry"/>
                </mxCell>
                <mxCell id="18" value="参考文献&lt;div&gt;E&lt;/div&gt;" style="text;html=1;align=center;verticalAlign=middle;whiteSpace=wrap;rounded=0;" vertex="1" parent="ML3krrQk0YiTmpszw3Px-1">
                    <mxGeometry x="241.26" y="410" width="110" height="30" as="geometry"/>
                </mxCell>
                <mxCell id="19" value="" style="triangle;whiteSpace=wrap;html=1;rotation=-180;" vertex="1" parent="ML3krrQk0YiTmpszw3Px-1">
                    <mxGeometry x="500" y="230" width="277.49" height="280" as="geometry"/>
                </mxCell>
                <mxCell id="20" value="先行研究２" style="text;html=1;align=center;verticalAlign=middle;whiteSpace=wrap;rounded=0;" vertex="1" parent="ML3krrQk0YiTmpszw3Px-1">
                    <mxGeometry x="390" y="355" width="110" height="30" as="geometry"/>
                </mxCell>
                <mxCell id="21" value="参考文献&lt;div&gt;a&lt;/div&gt;" style="text;html=1;align=center;verticalAlign=middle;whiteSpace=wrap;rounded=0;" vertex="1" parent="ML3krrQk0YiTmpszw3Px-1">
                    <mxGeometry x="550" y="310" width="110" height="30" as="geometry"/>
                </mxCell>
                <mxCell id="22" value="参考文献&lt;div&gt;b&lt;/div&gt;" style="text;html=1;align=center;verticalAlign=middle;whiteSpace=wrap;rounded=0;" vertex="1" parent="ML3krrQk0YiTmpszw3Px-1">
                    <mxGeometry x="550" y="370" width="110" height="30" as="geometry"/>
                </mxCell>
                <mxCell id="23" value="参考文献&lt;div&gt;c&lt;/div&gt;" style="text;html=1;align=center;verticalAlign=middle;whiteSpace=wrap;rounded=0;" vertex="1" parent="ML3krrQk0YiTmpszw3Px-1">
                    <mxGeometry x="660" y="270" width="110" height="30" as="geometry"/>
                </mxCell>
                <mxCell id="24" value="参考文献&lt;div&gt;d&lt;/div&gt;" style="text;html=1;align=center;verticalAlign=middle;whiteSpace=wrap;rounded=0;" vertex="1" parent="ML3krrQk0YiTmpszw3Px-1">
                    <mxGeometry x="660" y="340" width="110" height="30" as="geometry"/>
                </mxCell>
                <mxCell id="25" value="参考文献&lt;div&gt;d&lt;/div&gt;" style="text;html=1;align=center;verticalAlign=middle;whiteSpace=wrap;rounded=0;" vertex="1" parent="ML3krrQk0YiTmpszw3Px-1">
                    <mxGeometry x="660" y="410" width="110" height="30" as="geometry"/>
                </mxCell>
            </root>
        </mxGraphModel>
    </diagram>
</mxfile>